<svg width="1440" height="1024" viewBox="0 0 1440 1024" fill="none" xmlns="http://www.w3.org/2000/svg">
<rect width="1440" height="1024" fill="white"/>
<g opacity="0.5" filter="url(#filter0_d_44_2)">
<path d="M1253.83 111.411L1273.06 101.213V131.808L1288.25 125.689L1275.7 176.272L1271.24 148.941L1251 154.244L1253.83 111.411Z" fill="#E6E6E6"/>
<path d="M1277.72 90.6063L1301.4 80L1297.96 111.411L1316.18 108.759L1292.7 156.08L1294.72 120.385L1281.57 123.649L1277.72 90.6063Z" fill="#E6E6E6"/>
<path d="M1311.12 123.649L1331.97 95.7055L1351 108.759L1331.97 123.649L1342.3 125.689L1307.28 173.009L1323.06 133.643L1311.12 123.649Z" fill="#E6E6E6"/>
<path d="M1253.83 111.411L1273.06 101.213V131.808L1288.25 125.689L1275.7 176.272L1271.24 148.941L1251 154.244L1253.83 111.411Z" stroke="#DDDDDD"/>
<path d="M1277.72 90.6063L1301.4 80L1297.96 111.411L1316.18 108.759L1292.7 156.08L1294.72 120.385L1281.57 123.649L1277.72 90.6063Z" stroke="#DDDDDD"/>
<path d="M1311.12 123.649L1331.97 95.7055L1351 108.759L1331.97 123.649L1342.3 125.689L1307.28 173.009L1323.06 133.643L1311.12 123.649Z" stroke="#DDDDDD"/>
</g>
<g opacity="0.5" filter="url(#filter1_d_44_2)">
<path d="M844.834 447.411L864.065 437.213V467.808L879.247 461.689L866.696 512.272L862.243 484.941L842 490.244L844.834 447.411Z" fill="#E6E6E6"/>
<path d="M868.721 426.606L892.405 416L888.964 447.411L907.182 444.759L883.7 492.08L885.725 456.385L872.567 459.649L868.721 426.606Z" fill="#E6E6E6"/>
<path d="M902.121 459.649L922.972 431.705L942 444.759L922.972 459.649L933.296 461.689L898.275 509.009L914.065 469.643L902.121 459.649Z" fill="#E6E6E6"/>
<path d="M844.834 447.411L864.065 437.213V467.808L879.247 461.689L866.696 512.272L862.243 484.941L842 490.244L844.834 447.411Z" stroke="#DDDDDD"/>
<path d="M868.721 426.606L892.405 416L888.964 447.411L907.182 444.759L883.7 492.08L885.725 456.385L872.567 459.649L868.721 426.606Z" stroke="#DDDDDD"/>
<path d="M902.121 459.649L922.972 431.705L942 444.759L922.972 459.649L933.296 461.689L898.275 509.009L914.065 469.643L902.121 459.649Z" stroke="#DDDDDD"/>
</g>
<g opacity="0.5" filter="url(#filter2_d_44_2)">
<path d="M345.834 111.411L365.065 101.213V131.808L380.247 125.689L367.696 176.272L363.243 148.941L343 154.244L345.834 111.411Z" fill="#E6E6E6"/>
<path d="M369.721 90.6063L393.405 80L389.964 111.411L408.182 108.759L384.7 156.08L386.725 120.385L373.567 123.649L369.721 90.6063Z" fill="#E6E6E6"/>
<path d="M403.121 123.649L423.972 95.7055L443 108.759L423.972 123.649L434.296 125.689L399.275 173.009L415.065 133.643L403.121 123.649Z" fill="#E6E6E6"/>
<path d="M345.834 111.411L365.065 101.213V131.808L380.247 125.689L367.696 176.272L363.243 148.941L343 154.244L345.834 111.411Z" stroke="#DDDDDD"/>
<path d="M369.721 90.6063L393.405 80L389.964 111.411L408.182 108.759L384.7 156.08L386.725 120.385L373.567 123.649L369.721 90.6063Z" stroke="#DDDDDD"/>
<path d="M403.121 123.649L423.972 95.7055L443 108.759L423.972 123.649L434.296 125.689L399.275 173.009L415.065 133.643L403.121 123.649Z" stroke="#DDDDDD"/>
</g>
<g opacity="0.5" filter="url(#filter3_d_44_2)">
<path d="M78.834 289.411L98.0648 279.213V309.808L113.247 303.689L100.696 354.272L96.2429 326.941L76 332.244L78.834 289.411Z" fill="#E6E6E6"/>
<path d="M102.721 268.606L126.405 258L122.964 289.411L141.182 286.759L117.7 334.08L119.725 298.385L106.567 301.649L102.721 268.606Z" fill="#E6E6E6"/>
<path d="M136.121 301.649L156.972 273.705L176 286.759L156.972 301.649L167.296 303.689L132.275 351.009L148.065 311.643L136.121 301.649Z" fill="#E6E6E6"/>
<path d="M78.834 289.411L98.0648 279.213V309.808L113.247 303.689L100.696 354.272L96.2429 326.941L76 332.244L78.834 289.411Z" stroke="#DDDDDD"/>
<path d="M102.721 268.606L126.405 258L122.964 289.411L141.182 286.759L117.7 334.08L119.725 298.385L106.567 301.649L102.721 268.606Z" stroke="#DDDDDD"/>
<path d="M136.121 301.649L156.972 273.705L176 286.759L156.972 301.649L167.296 303.689L132.275 351.009L148.065 311.643L136.121 301.649Z" stroke="#DDDDDD"/>
</g>
<g opacity="0.5" filter="url(#filter4_d_44_2)">
<path d="M1090.83 694.411L1110.06 684.213V714.808L1125.25 708.689L1112.7 759.272L1108.24 731.941L1088 737.244L1090.83 694.411Z" fill="#E6E6E6"/>
<path d="M1114.72 673.606L1138.4 663L1134.96 694.411L1153.18 691.759L1129.7 739.08L1131.72 703.385L1118.57 706.649L1114.72 673.606Z" fill="#E6E6E6"/>
<path d="M1148.12 706.649L1168.97 678.705L1188 691.759L1168.97 706.649L1179.3 708.689L1144.28 756.009L1160.06 716.643L1148.12 706.649Z" fill="#E6E6E6"/>
<path d="M1090.83 694.411L1110.06 684.213V714.808L1125.25 708.689L1112.7 759.272L1108.24 731.941L1088 737.244L1090.83 694.411Z" stroke="#DDDDDD"/>
<path d="M1114.72 673.606L1138.4 663L1134.96 694.411L1153.18 691.759L1129.7 739.08L1131.72 703.385L1118.57 706.649L1114.72 673.606Z" stroke="#DDDDDD"/>
<path d="M1148.12 706.649L1168.97 678.705L1188 691.759L1168.97 706.649L1179.3 708.689L1144.28 756.009L1160.06 716.643L1148.12 706.649Z" stroke="#DDDDDD"/>
</g>
<g opacity="0.5" filter="url(#filter5_d_44_2)">
<path d="M844.834 903.411L864.065 893.213V923.808L879.247 917.689L866.696 968.272L862.243 940.941L842 946.244L844.834 903.411Z" fill="#E6E6E6"/>
<path d="M868.721 882.606L892.405 872L888.964 903.411L907.182 900.759L883.7 948.08L885.725 912.385L872.567 915.649L868.721 882.606Z" fill="#E6E6E6"/>
<path d="M902.121 915.649L922.972 887.705L942 900.759L922.972 915.649L933.296 917.689L898.275 965.009L914.065 925.643L902.121 915.649Z" fill="#E6E6E6"/>
<path d="M844.834 903.411L864.065 893.213V923.808L879.247 917.689L866.696 968.272L862.243 940.941L842 946.244L844.834 903.411Z" stroke="#DDDDDD"/>
<path d="M868.721 882.606L892.405 872L888.964 903.411L907.182 900.759L883.7 948.08L885.725 912.385L872.567 915.649L868.721 882.606Z" stroke="#DDDDDD"/>
<path d="M902.121 915.649L922.972 887.705L942 900.759L922.972 915.649L933.296 917.689L898.275 965.009L914.065 925.643L902.121 915.649Z" stroke="#DDDDDD"/>
</g>
<g opacity="0.5" filter="url(#filter6_d_44_2)">
<path d="M295.834 885.411L315.065 875.213V905.808L330.247 899.689L317.696 950.272L313.243 922.941L293 928.244L295.834 885.411Z" fill="#E6E6E6"/>
<path d="M319.721 864.606L343.405 854L339.964 885.411L358.182 882.759L334.7 930.08L336.725 894.385L323.567 897.649L319.721 864.606Z" fill="#E6E6E6"/>
<path d="M353.121 897.649L373.972 869.705L393 882.759L373.972 897.649L384.296 899.689L349.275 947.009L365.065 907.643L353.121 897.649Z" fill="#E6E6E6"/>
<path d="M295.834 885.411L315.065 875.213V905.808L330.247 899.689L317.696 950.272L313.243 922.941L293 928.244L295.834 885.411Z" stroke="#DDDDDD"/>
<path d="M319.721 864.606L343.405 854L339.964 885.411L358.182 882.759L334.7 930.08L336.725 894.385L323.567 897.649L319.721 864.606Z" stroke="#DDDDDD"/>
<path d="M353.121 897.649L373.972 869.705L393 882.759L373.972 897.649L384.296 899.689L349.275 947.009L365.065 907.643L353.121 897.649Z" stroke="#DDDDDD"/>
</g>
<g opacity="0.5" filter="url(#filter7_d_44_2)">
<path d="M577.834 658.411L597.065 648.213V678.808L612.247 672.689L599.696 723.272L595.243 695.941L575 701.244L577.834 658.411Z" fill="#E6E6E6"/>
<path d="M601.721 637.606L625.405 627L621.964 658.411L640.182 655.759L616.7 703.08L618.725 667.385L605.567 670.649L601.721 637.606Z" fill="#E6E6E6"/>
<path d="M635.121 670.649L655.972 642.705L675 655.759L655.972 670.649L666.296 672.689L631.275 720.009L647.065 680.643L635.121 670.649Z" fill="#E6E6E6"/>
<path d="M577.834 658.411L597.065 648.213V678.808L612.247 672.689L599.696 723.272L595.243 695.941L575 701.244L577.834 658.411Z" stroke="#DDDDDD"/>
<path d="M601.721 637.606L625.405 627L621.964 658.411L640.182 655.759L616.7 703.08L618.725 667.385L605.567 670.649L601.721 637.606Z" stroke="#DDDDDD"/>
<path d="M635.121 670.649L655.972 642.705L675 655.759L655.972 670.649L666.296 672.689L631.275 720.009L647.065 680.643L635.121 670.649Z" stroke="#DDDDDD"/>
</g>
<g opacity="0.5" filter="url(#filter8_d_44_2)">
<path d="M1040.83 289.411L1060.06 279.213V309.808L1075.25 303.689L1062.7 354.272L1058.24 326.941L1038 332.244L1040.83 289.411Z" fill="#E6E6E6"/>
<path d="M1064.72 268.606L1088.4 258L1084.96 289.411L1103.18 286.759L1079.7 334.08L1081.72 298.385L1068.57 301.649L1064.72 268.606Z" fill="#E6E6E6"/>
<path d="M1098.12 301.649L1118.97 273.705L1138 286.759L1118.97 301.649L1129.3 303.689L1094.28 351.009L1110.06 311.643L1098.12 301.649Z" fill="#E6E6E6"/>
<path d="M1040.83 289.411L1060.06 279.213V309.808L1075.25 303.689L1062.7 354.272L1058.24 326.941L1038 332.244L1040.83 289.411Z" stroke="#DDDDDD"/>
<path d="M1064.72 268.606L1088.4 258L1084.96 289.411L1103.18 286.759L1079.7 334.08L1081.72 298.385L1068.57 301.649L1064.72 268.606Z" stroke="#DDDDDD"/>
<path d="M1098.12 301.649L1118.97 273.705L1138 286.759L1118.97 301.649L1129.3 303.689L1094.28 351.009L1110.06 311.643L1098.12 301.649Z" stroke="#DDDDDD"/>
</g>
<g opacity="0.5" filter="url(#filter9_d_44_2)">
<path d="M780.834 111.411L800.065 101.213V131.808L815.247 125.689L802.696 176.272L798.243 148.941L778 154.244L780.834 111.411Z" fill="#E6E6E6"/>
<path d="M804.721 90.6063L828.405 80L824.964 111.411L843.182 108.759L819.7 156.08L821.725 120.385L808.567 123.649L804.721 90.6063Z" fill="#E6E6E6"/>
<path d="M838.121 123.649L858.972 95.7055L878 108.759L858.972 123.649L869.296 125.689L834.275 173.009L850.065 133.643L838.121 123.649Z" fill="#E6E6E6"/>
<path d="M780.834 111.411L800.065 101.213V131.808L815.247 125.689L802.696 176.272L798.243 148.941L778 154.244L780.834 111.411Z" stroke="#DDDDDD"/>
<path d="M804.721 90.6063L828.405 80L824.964 111.411L843.182 108.759L819.7 156.08L821.725 120.385L808.567 123.649L804.721 90.6063Z" stroke="#DDDDDD"/>
<path d="M838.121 123.649L858.972 95.7055L878 108.759L858.972 123.649L869.296 125.689L834.275 173.009L850.065 133.643L838.121 123.649Z" stroke="#DDDDDD"/>
</g>
<g opacity="0.5" filter="url(#filter10_d_44_2)">
<path d="M1253.83 447.411L1273.06 437.213V467.808L1288.25 461.689L1275.7 512.272L1271.24 484.941L1251 490.244L1253.83 447.411Z" fill="#E6E6E6"/>
<path d="M1277.72 426.606L1301.4 416L1297.96 447.411L1316.18 444.759L1292.7 492.08L1294.72 456.385L1281.57 459.649L1277.72 426.606Z" fill="#E6E6E6"/>
<path d="M1311.12 459.649L1331.97 431.705L1351 444.759L1331.97 459.649L1342.3 461.689L1307.28 509.009L1323.06 469.643L1311.12 459.649Z" fill="#E6E6E6"/>
<path d="M1253.83 447.411L1273.06 437.213V467.808L1288.25 461.689L1275.7 512.272L1271.24 484.941L1251 490.244L1253.83 447.411Z" stroke="#DDDDDD"/>
<path d="M1277.72 426.606L1301.4 416L1297.96 447.411L1316.18 444.759L1292.7 492.08L1294.72 456.385L1281.57 459.649L1277.72 426.606Z" stroke="#DDDDDD"/>
<path d="M1311.12 459.649L1331.97 431.705L1351 444.759L1331.97 459.649L1342.3 461.689L1307.28 509.009L1323.06 469.643L1311.12 459.649Z" stroke="#DDDDDD"/>
</g>
<g opacity="0.5" filter="url(#filter11_d_44_2)">
<path d="M215.834 543.411L235.065 533.213V563.808L250.247 557.689L237.696 608.272L233.243 580.941L213 586.244L215.834 543.411Z" fill="#E6E6E6"/>
<path d="M239.721 522.606L263.405 512L259.964 543.411L278.182 540.759L254.7 588.08L256.725 552.385L243.567 555.649L239.721 522.606Z" fill="#E6E6E6"/>
<path d="M273.121 555.649L293.972 527.705L313 540.759L293.972 555.649L304.296 557.689L269.275 605.009L285.065 565.643L273.121 555.649Z" fill="#E6E6E6"/>
<path d="M215.834 543.411L235.065 533.213V563.808L250.247 557.689L237.696 608.272L233.243 580.941L213 586.244L215.834 543.411Z" stroke="#DDDDDD"/>
<path d="M239.721 522.606L263.405 512L259.964 543.411L278.182 540.759L254.7 588.08L256.725 552.385L243.567 555.649L239.721 522.606Z" stroke="#DDDDDD"/>
<path d="M273.121 555.649L293.972 527.705L313 540.759L293.972 555.649L304.296 557.689L269.275 605.009L285.065 565.643L273.121 555.649Z" stroke="#DDDDDD"/>
</g>
<g opacity="0.5" filter="url(#filter12_d_44_2)">
<path d="M477.834 337.411L497.065 327.213V357.808L512.247 351.689L499.696 402.272L495.243 374.941L475 380.244L477.834 337.411Z" fill="#E6E6E6"/>
<path d="M501.721 316.606L525.405 306L521.964 337.411L540.182 334.759L516.7 382.08L518.725 346.385L505.567 349.649L501.721 316.606Z" fill="#E6E6E6"/>
<path d="M535.121 349.649L555.972 321.705L575 334.759L555.972 349.649L566.296 351.689L531.275 399.009L547.065 359.643L535.121 349.649Z" fill="#E6E6E6"/>
<path d="M477.834 337.411L497.065 327.213V357.808L512.247 351.689L499.696 402.272L495.243 374.941L475 380.244L477.834 337.411Z" stroke="#DDDDDD"/>
<path d="M501.721 316.606L525.405 306L521.964 337.411L540.182 334.759L516.7 382.08L518.725 346.385L505.567 349.649L501.721 316.606Z" stroke="#DDDDDD"/>
<path d="M535.121 349.649L555.972 321.705L575 334.759L555.972 349.649L566.296 351.689L531.275 399.009L547.065 359.643L535.121 349.649Z" stroke="#DDDDDD"/>
</g>
<defs>
<filter id="filter0_d_44_2" x="1246.46" y="79.187" width="109.39" height="105.206" filterUnits="userSpaceOnUse" color-interpolation-filters="sRGB">
<feFlood flood-opacity="0" result="BackgroundImageFix"/>
<feColorMatrix in="SourceAlpha" type="matrix" values="0 0 0 0 0 0 0 0 0 0 0 0 0 0 0 0 0 0 127 0" result="hardAlpha"/>
<feOffset dy="4"/>
<feGaussianBlur stdDeviation="2"/>
<feComposite in2="hardAlpha" operator="out"/>
<feColorMatrix type="matrix" values="0 0 0 0 0 0 0 0 0 0 0 0 0 0 0 0 0 0 0.25 0"/>
<feBlend mode="normal" in2="BackgroundImageFix" result="effect1_dropShadow_44_2"/>
<feBlend mode="normal" in="SourceGraphic" in2="effect1_dropShadow_44_2" result="shape"/>
</filter>
<filter id="filter1_d_44_2" x="837.455" y="415.187" width="109.39" height="105.206" filterUnits="userSpaceOnUse" color-interpolation-filters="sRGB">
<feFlood flood-opacity="0" result="BackgroundImageFix"/>
<feColorMatrix in="SourceAlpha" type="matrix" values="0 0 0 0 0 0 0 0 0 0 0 0 0 0 0 0 0 0 127 0" result="hardAlpha"/>
<feOffset dy="4"/>
<feGaussianBlur stdDeviation="2"/>
<feComposite in2="hardAlpha" operator="out"/>
<feColorMatrix type="matrix" values="0 0 0 0 0 0 0 0 0 0 0 0 0 0 0 0 0 0 0.25 0"/>
<feBlend mode="normal" in2="BackgroundImageFix" result="effect1_dropShadow_44_2"/>
<feBlend mode="normal" in="SourceGraphic" in2="effect1_dropShadow_44_2" result="shape"/>
</filter>
<filter id="filter2_d_44_2" x="338.455" y="79.187" width="109.39" height="105.206" filterUnits="userSpaceOnUse" color-interpolation-filters="sRGB">
<feFlood flood-opacity="0" result="BackgroundImageFix"/>
<feColorMatrix in="SourceAlpha" type="matrix" values="0 0 0 0 0 0 0 0 0 0 0 0 0 0 0 0 0 0 127 0" result="hardAlpha"/>
<feOffset dy="4"/>
<feGaussianBlur stdDeviation="2"/>
<feComposite in2="hardAlpha" operator="out"/>
<feColorMatrix type="matrix" values="0 0 0 0 0 0 0 0 0 0 0 0 0 0 0 0 0 0 0.25 0"/>
<feBlend mode="normal" in2="BackgroundImageFix" result="effect1_dropShadow_44_2"/>
<feBlend mode="normal" in="SourceGraphic" in2="effect1_dropShadow_44_2" result="shape"/>
</filter>
<filter id="filter3_d_44_2" x="71.4551" y="257.187" width="109.39" height="105.206" filterUnits="userSpaceOnUse" color-interpolation-filters="sRGB">
<feFlood flood-opacity="0" result="BackgroundImageFix"/>
<feColorMatrix in="SourceAlpha" type="matrix" values="0 0 0 0 0 0 0 0 0 0 0 0 0 0 0 0 0 0 127 0" result="hardAlpha"/>
<feOffset dy="4"/>
<feGaussianBlur stdDeviation="2"/>
<feComposite in2="hardAlpha" operator="out"/>
<feColorMatrix type="matrix" values="0 0 0 0 0 0 0 0 0 0 0 0 0 0 0 0 0 0 0.25 0"/>
<feBlend mode="normal" in2="BackgroundImageFix" result="effect1_dropShadow_44_2"/>
<feBlend mode="normal" in="SourceGraphic" in2="effect1_dropShadow_44_2" result="shape"/>
</filter>
<filter id="filter4_d_44_2" x="1083.46" y="662.187" width="109.39" height="105.206" filterUnits="userSpaceOnUse" color-interpolation-filters="sRGB">
<feFlood flood-opacity="0" result="BackgroundImageFix"/>
<feColorMatrix in="SourceAlpha" type="matrix" values="0 0 0 0 0 0 0 0 0 0 0 0 0 0 0 0 0 0 127 0" result="hardAlpha"/>
<feOffset dy="4"/>
<feGaussianBlur stdDeviation="2"/>
<feComposite in2="hardAlpha" operator="out"/>
<feColorMatrix type="matrix" values="0 0 0 0 0 0 0 0 0 0 0 0 0 0 0 0 0 0 0.25 0"/>
<feBlend mode="normal" in2="BackgroundImageFix" result="effect1_dropShadow_44_2"/>
<feBlend mode="normal" in="SourceGraphic" in2="effect1_dropShadow_44_2" result="shape"/>
</filter>
<filter id="filter5_d_44_2" x="837.455" y="871.187" width="109.39" height="105.206" filterUnits="userSpaceOnUse" color-interpolation-filters="sRGB">
<feFlood flood-opacity="0" result="BackgroundImageFix"/>
<feColorMatrix in="SourceAlpha" type="matrix" values="0 0 0 0 0 0 0 0 0 0 0 0 0 0 0 0 0 0 127 0" result="hardAlpha"/>
<feOffset dy="4"/>
<feGaussianBlur stdDeviation="2"/>
<feComposite in2="hardAlpha" operator="out"/>
<feColorMatrix type="matrix" values="0 0 0 0 0 0 0 0 0 0 0 0 0 0 0 0 0 0 0.25 0"/>
<feBlend mode="normal" in2="BackgroundImageFix" result="effect1_dropShadow_44_2"/>
<feBlend mode="normal" in="SourceGraphic" in2="effect1_dropShadow_44_2" result="shape"/>
</filter>
<filter id="filter6_d_44_2" x="288.455" y="853.187" width="109.39" height="105.206" filterUnits="userSpaceOnUse" color-interpolation-filters="sRGB">
<feFlood flood-opacity="0" result="BackgroundImageFix"/>
<feColorMatrix in="SourceAlpha" type="matrix" values="0 0 0 0 0 0 0 0 0 0 0 0 0 0 0 0 0 0 127 0" result="hardAlpha"/>
<feOffset dy="4"/>
<feGaussianBlur stdDeviation="2"/>
<feComposite in2="hardAlpha" operator="out"/>
<feColorMatrix type="matrix" values="0 0 0 0 0 0 0 0 0 0 0 0 0 0 0 0 0 0 0.25 0"/>
<feBlend mode="normal" in2="BackgroundImageFix" result="effect1_dropShadow_44_2"/>
<feBlend mode="normal" in="SourceGraphic" in2="effect1_dropShadow_44_2" result="shape"/>
</filter>
<filter id="filter7_d_44_2" x="570.455" y="626.187" width="109.39" height="105.206" filterUnits="userSpaceOnUse" color-interpolation-filters="sRGB">
<feFlood flood-opacity="0" result="BackgroundImageFix"/>
<feColorMatrix in="SourceAlpha" type="matrix" values="0 0 0 0 0 0 0 0 0 0 0 0 0 0 0 0 0 0 127 0" result="hardAlpha"/>
<feOffset dy="4"/>
<feGaussianBlur stdDeviation="2"/>
<feComposite in2="hardAlpha" operator="out"/>
<feColorMatrix type="matrix" values="0 0 0 0 0 0 0 0 0 0 0 0 0 0 0 0 0 0 0.25 0"/>
<feBlend mode="normal" in2="BackgroundImageFix" result="effect1_dropShadow_44_2"/>
<feBlend mode="normal" in="SourceGraphic" in2="effect1_dropShadow_44_2" result="shape"/>
</filter>
<filter id="filter8_d_44_2" x="1033.46" y="257.187" width="109.39" height="105.206" filterUnits="userSpaceOnUse" color-interpolation-filters="sRGB">
<feFlood flood-opacity="0" result="BackgroundImageFix"/>
<feColorMatrix in="SourceAlpha" type="matrix" values="0 0 0 0 0 0 0 0 0 0 0 0 0 0 0 0 0 0 127 0" result="hardAlpha"/>
<feOffset dy="4"/>
<feGaussianBlur stdDeviation="2"/>
<feComposite in2="hardAlpha" operator="out"/>
<feColorMatrix type="matrix" values="0 0 0 0 0 0 0 0 0 0 0 0 0 0 0 0 0 0 0.25 0"/>
<feBlend mode="normal" in2="BackgroundImageFix" result="effect1_dropShadow_44_2"/>
<feBlend mode="normal" in="SourceGraphic" in2="effect1_dropShadow_44_2" result="shape"/>
</filter>
<filter id="filter9_d_44_2" x="773.455" y="79.187" width="109.39" height="105.206" filterUnits="userSpaceOnUse" color-interpolation-filters="sRGB">
<feFlood flood-opacity="0" result="BackgroundImageFix"/>
<feColorMatrix in="SourceAlpha" type="matrix" values="0 0 0 0 0 0 0 0 0 0 0 0 0 0 0 0 0 0 127 0" result="hardAlpha"/>
<feOffset dy="4"/>
<feGaussianBlur stdDeviation="2"/>
<feComposite in2="hardAlpha" operator="out"/>
<feColorMatrix type="matrix" values="0 0 0 0 0 0 0 0 0 0 0 0 0 0 0 0 0 0 0.25 0"/>
<feBlend mode="normal" in2="BackgroundImageFix" result="effect1_dropShadow_44_2"/>
<feBlend mode="normal" in="SourceGraphic" in2="effect1_dropShadow_44_2" result="shape"/>
</filter>
<filter id="filter10_d_44_2" x="1246.46" y="415.187" width="109.39" height="105.206" filterUnits="userSpaceOnUse" color-interpolation-filters="sRGB">
<feFlood flood-opacity="0" result="BackgroundImageFix"/>
<feColorMatrix in="SourceAlpha" type="matrix" values="0 0 0 0 0 0 0 0 0 0 0 0 0 0 0 0 0 0 127 0" result="hardAlpha"/>
<feOffset dy="4"/>
<feGaussianBlur stdDeviation="2"/>
<feComposite in2="hardAlpha" operator="out"/>
<feColorMatrix type="matrix" values="0 0 0 0 0 0 0 0 0 0 0 0 0 0 0 0 0 0 0.25 0"/>
<feBlend mode="normal" in2="BackgroundImageFix" result="effect1_dropShadow_44_2"/>
<feBlend mode="normal" in="SourceGraphic" in2="effect1_dropShadow_44_2" result="shape"/>
</filter>
<filter id="filter11_d_44_2" x="208.455" y="511.187" width="109.39" height="105.206" filterUnits="userSpaceOnUse" color-interpolation-filters="sRGB">
<feFlood flood-opacity="0" result="BackgroundImageFix"/>
<feColorMatrix in="SourceAlpha" type="matrix" values="0 0 0 0 0 0 0 0 0 0 0 0 0 0 0 0 0 0 127 0" result="hardAlpha"/>
<feOffset dy="4"/>
<feGaussianBlur stdDeviation="2"/>
<feComposite in2="hardAlpha" operator="out"/>
<feColorMatrix type="matrix" values="0 0 0 0 0 0 0 0 0 0 0 0 0 0 0 0 0 0 0.25 0"/>
<feBlend mode="normal" in2="BackgroundImageFix" result="effect1_dropShadow_44_2"/>
<feBlend mode="normal" in="SourceGraphic" in2="effect1_dropShadow_44_2" result="shape"/>
</filter>
<filter id="filter12_d_44_2" x="470.455" y="305.187" width="109.39" height="105.206" filterUnits="userSpaceOnUse" color-interpolation-filters="sRGB">
<feFlood flood-opacity="0" result="BackgroundImageFix"/>
<feColorMatrix in="SourceAlpha" type="matrix" values="0 0 0 0 0 0 0 0 0 0 0 0 0 0 0 0 0 0 127 0" result="hardAlpha"/>
<feOffset dy="4"/>
<feGaussianBlur stdDeviation="2"/>
<feComposite in2="hardAlpha" operator="out"/>
<feColorMatrix type="matrix" values="0 0 0 0 0 0 0 0 0 0 0 0 0 0 0 0 0 0 0.25 0"/>
<feBlend mode="normal" in2="BackgroundImageFix" result="effect1_dropShadow_44_2"/>
<feBlend mode="normal" in="SourceGraphic" in2="effect1_dropShadow_44_2" result="shape"/>
</filter>
</defs>
</svg>
