<svg width="28" height="31" viewBox="0 0 28 31" fill="none" xmlns="http://www.w3.org/2000/svg">
<path d="M3.00016 26.7393C4.59965 28.6666 7.57658 28.6666 13.5305 28.6666H14.4921C20.4459 28.6666 23.4229 28.6666 25.0223 26.7393M3.00016 26.7393C1.40065 24.8121 1.94926 21.8861 3.0465 16.0342C3.8268 11.8726 4.21694 9.79183 5.69814 8.56253M25.0223 26.7393C26.6218 24.8121 26.0733 21.8861 24.9761 16.0342C24.1957 11.8726 23.8055 9.79183 22.3243 8.56253M22.3243 8.56253C20.8431 7.33325 18.7262 7.33325 14.4921 7.33325H13.5305C9.29638 7.33325 7.17934 7.33325 5.69814 8.56253" stroke="#1C274C" stroke-width="2.72"/>
<path opacity="0.5" d="M10.0114 7.33333V6C10.0114 3.79087 11.8022 2 14.0114 2C16.2206 2 18.0114 3.79087 18.0114 6V7.33333" stroke="#1C274C" stroke-width="2.72" stroke-linecap="round"/>
</svg>
