<svg width="29" height="29" viewBox="0 0 29 29" fill="none" xmlns="http://www.w3.org/2000/svg">
<path d="M3.04085 25.1931C4.70543 27 7.8035 27 13.9997 27H15.0004C21.1965 27 24.2946 27 25.9591 25.1931M3.04085 25.1931C1.37626 23.3864 1.9472 20.6432 3.08909 15.1571C3.90113 11.2556 4.30715 9.30491 5.84863 8.15245M25.9591 25.1931C27.6237 23.3864 27.0528 20.6432 25.911 15.1571C25.0988 11.2556 24.6928 9.30491 23.1514 8.15245M23.1514 8.15245C21.6099 7 19.4068 7 15.0004 7H13.9997C9.59328 7 7.3901 7 5.84863 8.15245" stroke="black" stroke-width="3.42857"/>
<path opacity="0.5" d="M10.3374 7V5.75C10.3374 3.67894 12.2011 2 14.5002 2C16.7993 2 18.6629 3.67894 18.6629 5.75V7" stroke="black" stroke-width="3.42857" stroke-linecap="round"/>
</svg>
