<svg width="30" height="27" viewBox="0 0 30 27" fill="none" xmlns="http://www.w3.org/2000/svg">
<path fill-rule="evenodd" clip-rule="evenodd" d="M25.3333 0C27.5425 0 29.3333 1.64841 29.3333 3.68182V23.3182C29.3333 25.3517 27.5425 27 25.3333 27H4C1.79087 27 0 25.3517 0 23.3182V3.68182C0 1.64841 1.79087 0 4 0H25.3333ZM25.3333 2.45455C26.0697 2.45455 26.6667 3.00402 26.6667 3.68182V23.3182C26.6667 23.996 26.0697 24.5455 25.3333 24.5455H18.6667V15.9544H21.4349C22.0088 15.9544 22.5183 15.6164 22.6999 15.1152L23.2905 13.4842C23.5064 12.8881 23.0244 12.2726 22.3419 12.2726H18.6667V9.81808C18.6667 9.20445 19.3333 8.59081 20 8.59081H22.6667C23.4031 8.59081 24 8.04134 24 7.36354V6.52164C24 6.12521 23.7249 5.76978 23.3084 5.66861C21.5607 5.24407 20 5.24408 20 5.24408C16.6667 5.24408 14.6667 7.36354 14.6667 9.20445V12.2726H12C11.2636 12.2726 10.6667 12.8221 10.6667 13.4999V14.7272C10.6667 15.405 11.2636 15.9544 12 15.9544H14.6667V24.5455H4C3.26363 24.5455 2.66667 23.996 2.66667 23.3182V3.68182C2.66667 3.00402 3.26363 2.45455 4 2.45455H25.3333Z" fill="#0F0F0F" stroke="black" stroke-width="0.00032"/>
</svg>
