<svg width="30" height="28" viewBox="0 0 30 28" fill="none" xmlns="http://www.w3.org/2000/svg">
<path fill-rule="evenodd" clip-rule="evenodd" d="M14.6667 21.1212C19.085 21.1212 22.6667 17.7837 22.6667 13.6667C22.6667 9.54967 19.085 6.21216 14.6667 6.21216C10.2484 6.21216 6.66669 9.54967 6.66669 13.6667C6.66669 17.7837 10.2484 21.1212 14.6667 21.1212ZM14.6667 18.6364C17.6122 18.6364 20 16.4113 20 13.6667C20 10.922 17.6122 8.69701 14.6667 8.69701C11.7212 8.69701 9.33335 10.922 9.33335 13.6667C9.33335 16.4113 11.7212 18.6364 14.6667 18.6364Z" fill="#0F0F0F" stroke="black" stroke-width="0.00032"/>
<path d="M22.6666 4.96973C21.9302 4.96973 21.3333 5.52598 21.3333 6.21215C21.3333 6.89832 21.9302 7.45458 22.6666 7.45458C23.403 7.45458 24 6.89832 24 6.21215C24 5.52598 23.403 4.96973 22.6666 4.96973Z" fill="#0F0F0F" stroke="black" stroke-width="0.00032"/>
<path fill-rule="evenodd" clip-rule="evenodd" d="M0.871947 4.07026C0 5.66487 0 7.75234 0 11.9273V15.4061C0 19.581 0 21.6685 0.871947 23.263C1.63893 24.6657 2.86277 25.8061 4.36808 26.5208C6.07937 27.3333 8.31959 27.3333 12.8 27.3333H16.5333C21.0137 27.3333 23.254 27.3333 24.9652 26.5208C26.4705 25.8061 27.6944 24.6657 28.4613 23.263C29.3333 21.6685 29.3333 19.581 29.3333 15.4061V11.9273C29.3333 7.75234 29.3333 5.66487 28.4613 4.07026C27.6944 2.66758 26.4705 1.52719 24.9652 0.812496C23.254 0 21.0137 0 16.5333 0H12.8C8.31959 0 6.07937 0 4.36808 0.812496C2.86277 1.52719 1.63893 2.66758 0.871947 4.07026ZM16.5333 2.48485H12.8C10.5158 2.48485 8.963 2.48679 7.76277 2.57815C6.59365 2.66716 5.99579 2.82849 5.57872 3.02651C4.57519 3.50298 3.75929 4.26324 3.24796 5.19835C3.03545 5.58698 2.86232 6.14409 2.7668 7.23349C2.66875 8.35189 2.66667 9.7988 2.66667 11.9273V15.4061C2.66667 17.5346 2.66875 18.9814 2.7668 20.0998C2.86232 21.1893 3.03545 21.7464 3.24796 22.135C3.75929 23.0701 4.57519 23.8303 5.57872 24.3068C5.99579 24.5048 6.59365 24.6662 7.76277 24.7552C8.963 24.8465 10.5158 24.8485 12.8 24.8485H16.5333C18.8176 24.8485 20.3703 24.8465 21.5705 24.7552C22.7397 24.6662 23.3376 24.5048 23.7547 24.3068C24.7581 23.8303 25.574 23.0701 26.0853 22.135C26.2979 21.7464 26.4711 21.1893 26.5665 20.0998C26.6645 18.9814 26.6667 17.5346 26.6667 15.4061V11.9273C26.6667 9.7988 26.6645 8.35189 26.5665 7.23349C26.4711 6.14409 26.2979 5.58698 26.0853 5.19835C25.574 4.26324 24.7581 3.50298 23.7547 3.02651C23.3376 2.82849 22.7397 2.66716 21.5705 2.57815C20.3703 2.48679 18.8176 2.48485 16.5333 2.48485Z" fill="#0F0F0F" stroke="black" stroke-width="0.00032"/>
</svg>
