<svg width="42" height="42" viewBox="0 0 42 42" fill="none" xmlns="http://www.w3.org/2000/svg">
<g filter="url(#filter0_d_44_4)">
<path d="M5.90688 11.4407L12.0607 8.05085V18.2203L16.919 16.1864L12.9028 33L11.4777 23.9153L5 25.678L5.90688 11.4407Z" fill="#FFDF3F"/>
<path d="M13.5506 4.52542L21.1296 1L20.0283 11.4407L25.8583 10.5593L18.3441 26.2881L18.9919 14.4237L14.7814 15.5085L13.5506 4.52542Z" fill="#FFDF3F"/>
<path d="M24.2389 15.5085L30.9109 6.22034L37 10.5593L30.9109 15.5085L34.2146 16.1864L23.0081 31.9153L28.0607 18.8305L24.2389 15.5085Z" fill="#FFDF3F"/>
<path d="M5.90688 11.4407L12.0607 8.05085V18.2203L16.919 16.1864L12.9028 33L11.4777 23.9153L5 25.678L5.90688 11.4407Z" stroke="#FFDF3F"/>
<path d="M13.5506 4.52542L21.1296 1L20.0283 11.4407L25.8583 10.5593L18.3441 26.2881L18.9919 14.4237L14.7814 15.5085L13.5506 4.52542Z" stroke="#FFDF3F"/>
<path d="M24.2389 15.5085L30.9109 6.22034L37 10.5593L30.9109 15.5085L34.2146 16.1864L23.0081 31.9153L28.0607 18.8305L24.2389 15.5085Z" stroke="#FFDF3F"/>
</g>
<defs>
<filter id="filter0_d_44_4" x="0.456543" y="0.174164" width="41.3683" height="40.942" filterUnits="userSpaceOnUse" color-interpolation-filters="sRGB">
<feFlood flood-opacity="0" result="BackgroundImageFix"/>
<feColorMatrix in="SourceAlpha" type="matrix" values="0 0 0 0 0 0 0 0 0 0 0 0 0 0 0 0 0 0 127 0" result="hardAlpha"/>
<feOffset dy="4"/>
<feGaussianBlur stdDeviation="2"/>
<feComposite in2="hardAlpha" operator="out"/>
<feColorMatrix type="matrix" values="0 0 0 0 0 0 0 0 0 0 0 0 0 0 0 0 0 0 0.25 0"/>
<feBlend mode="normal" in2="BackgroundImageFix" result="effect1_dropShadow_44_4"/>
<feBlend mode="normal" in="SourceGraphic" in2="effect1_dropShadow_44_4" result="shape"/>
</filter>
</defs>
</svg>
