<svg width="32" height="27" viewBox="0 0 32 27" fill="none" xmlns="http://www.w3.org/2000/svg">
<path fill-rule="evenodd" clip-rule="evenodd" d="M12.6615 6.19764C12.2489 5.93235 11.7419 5.93425 11.3308 6.20263C10.9197 6.47101 10.6667 6.96529 10.6667 7.5V19.5C10.6667 20.0347 10.9197 20.529 11.3308 20.7973C11.7419 21.0657 12.2489 21.0676 12.6615 20.8023L21.9948 14.8023C22.4103 14.5353 22.6667 14.0383 22.6667 13.5C22.6667 12.9616 22.4103 12.4647 21.9948 12.1977L12.6615 6.19764ZM18.6459 13.5L13.3334 16.9152V10.0848L18.6459 13.5Z" fill="#0F0F0F" stroke="black" stroke-width="0.00032"/>
<path fill-rule="evenodd" clip-rule="evenodd" d="M0 13.5C0 7.8754 0 5.0631 1.27322 3.0916C1.68441 2.4549 2.18213 1.89497 2.74809 1.43237C4.50053 8.9407e-08 7.00036 0 12 0H20C24.9996 0 27.4995 8.9407e-08 29.2519 1.43237C29.8179 1.89497 30.3156 2.4549 30.7268 3.0916C32 5.0631 32 7.8754 32 13.5C32 19.1246 32 21.9369 30.7268 23.9083C30.3156 24.5451 29.8179 25.105 29.2519 25.5676C27.4995 27 24.9996 27 20 27H12C7.00036 27 4.50053 27 2.74809 25.5676C2.18213 25.105 1.68441 24.5451 1.27322 23.9083C0 21.9369 0 19.1246 0 13.5ZM12 3H20C22.5592 3 24.2644 3.00412 25.5564 3.16159C26.7985 3.31299 27.3387 3.57672 27.6845 3.85942C28.024 4.13698 28.3227 4.47294 28.5695 4.85496C28.8207 5.24407 29.0551 5.85169 29.1897 7.24903C29.3297 8.7025 29.3333 10.6209 29.3333 13.5C29.3333 16.3791 29.3297 18.2974 29.1897 19.7509C29.0551 21.1483 28.8207 21.756 28.5695 22.1451C28.3227 22.527 28.024 22.863 27.6845 23.1406C27.3387 23.4232 26.7985 23.6869 25.5564 23.8384C24.2644 23.9959 22.5592 24 20 24H12C9.44077 24 7.73556 23.9959 6.44359 23.8384C5.20151 23.6869 4.6614 23.4232 4.31552 23.1406C3.97595 22.863 3.67732 22.527 3.4306 22.1451C3.17931 21.756 2.94488 21.1483 2.81031 19.7509C2.67033 18.2974 2.66667 16.3791 2.66667 13.5C2.66667 10.6209 2.67033 8.7025 2.81031 7.24903C2.94488 5.85169 3.17931 5.24407 3.4306 4.85496C3.67732 4.47294 3.97595 4.13698 4.31552 3.85942C4.6614 3.57672 5.20151 3.31299 6.44359 3.16159C7.73556 3.00412 9.44077 3 12 3Z" fill="#0F0F0F" stroke="black" stroke-width="0.00032"/>
</svg>
